<svg width="48" height="48" viewBox="0 0 48 48" fill="none" xmlns="http://www.w3.org/2000/svg">
<path d="M28.5155 38.4227L28.3492 38.0988C26.6163 38.648 24.9547 38.8013 23.5563 38.7792C22.3684 38.7273 21.0357 38.5377 19.6508 38.0988L19.4844 38.4227C19.4844 38.4227 23.8642 41.3992 23.8642 48H24.1671C24.1671 41.3992 28.5155 38.4227 28.5155 38.4227Z" fill="#A68D67"/>
<path d="M9.58786 28.5243L9.91217 28.3581C9.3623 26.6271 9.20889 24.9674 9.231 23.5705C9.28301 22.3839 9.47277 21.0527 9.91217 19.6694L9.58786 19.5032C9.58786 19.5032 6.6081 23.8781 0 23.8781V24.1806C6.6081 24.1806 9.58786 28.5243 9.58786 28.5243Z" fill="#A68D67"/>
<path d="M38.4121 19.503L38.0878 19.6692C38.6377 21.4002 38.7911 23.06 38.769 24.4568C38.717 25.6434 38.5272 26.9746 38.0878 28.358L38.4121 28.5242C38.4121 28.5242 41.3919 24.1493 48 24.1493V23.8467C41.3919 23.8467 38.4121 19.503 38.4121 19.503Z" fill="#A68D67"/>
<path d="M18.7221 15.3789V18.8507H15.5039L5.07678 6.44205L18.7221 15.3789Z" fill="#A68D67"/>
<path d="M15.2464 29.2006H18.722V32.4153L6.29965 42.8308L15.2464 29.2006Z" fill="#A68D67"/>
<path d="M35.7258 20.3609L34.2294 21.1445H26.8723V13.7955L27.6567 12.3008C27.6567 12.3008 26.5826 11.9392 24 11.9392C21.8518 11.9392 20.3433 12.3008 20.3433 12.3008L21.1277 13.7955V21.1445H13.7706L12.2742 20.3609C12.2742 20.3609 11.9122 21.4338 11.9122 24.0136C11.9122 26.1594 12.2742 27.6663 12.2742 27.6663L13.7706 26.8827H21.1277V34.2317L20.3433 35.7264C20.3433 35.7264 21.4174 36.0881 24 36.0881C26.1482 36.0881 27.6567 35.7264 27.6567 35.7264L26.8723 34.2317V26.8827H34.2294L35.7258 27.6663C35.7258 27.6663 36.0878 26.5934 36.0878 24.0136C36.0878 21.8678 35.7258 20.3609 35.7258 20.3609Z" fill="#A68D67"/>
<path d="M29.2651 15.3789V18.8507H32.4834L42.9105 6.44205L29.2651 15.3789Z" fill="#A68D67"/>
<path d="M32.7408 29.2006H29.2651V32.4153L41.6875 42.8308L32.7408 29.2006Z" fill="#A68D67"/>
<path d="M19.4844 9.57721L19.6508 9.90112C21.3837 9.3519 23.0453 9.19866 24.4437 9.22074C25.6316 9.27269 26.9643 9.4622 28.3492 9.90112L28.5155 9.57721C28.5155 9.57721 24.1358 6.60074 24.1358 -5.48631e-05H23.8329C23.8329 6.60074 19.4844 9.57721 19.4844 9.57721Z" fill="#A68D67"/>
</svg>
