<svg width="32" height="32" viewBox="0 0 32 32" fill="none" xmlns="http://www.w3.org/2000/svg">
<g clip-path="url(#clip0_8_46)">
<rect width="32" height="32" fill="black"/>
<path d="M2 0.5C1.17157 0.5 0.5 1.17157 0.5 2C0.5 2.82843 1.17157 3.5 2 3.5L2 0.5ZM10 2L11.234 1.14723L10.7867 0.5L10 0.5L10 2ZM12 4.89412L10.766 5.74689L11.2133 6.39412L12 6.39412L12 4.89412ZM20 4.89412L20 6.39412L20.7867 6.39412L21.234 5.74689L20 4.89412ZM22 2L22 0.5L21.2133 0.5L20.766 1.14723L22 2ZM2 3.5L10 3.5L10 0.5L2 0.5L2 3.5ZM8.76599 2.85277L10.766 5.74689L13.234 4.04135L11.234 1.14723L8.76599 2.85277ZM12 6.39412L20 6.39412L20 3.39412L12 3.39412L12 6.39412ZM21.234 5.74689L23.234 2.85277L20.766 1.14723L18.766 4.04135L21.234 5.74689ZM22 3.5L32 3.5L32 0.5L22 0.5L22 3.5Z" fill="white"/>
<g filter="url(#filter0_d_8_46)">
<path d="M24.7211 23.794C24.8349 24.1922 24.6043 24.6073 24.206 24.7211C23.8078 24.8349 23.3927 24.6043 23.2789 24.206L24.7211 23.794ZM22 17L22.416 16.376L22.6454 16.5289L22.7211 16.794L22 17ZM19 15L18.584 15.624L18.4592 15.5408L18.376 15.416L19 15ZM17 12L16.376 12.416L16.1725 12.1108L16.2885 11.7628L17 12ZM18 9L17.2885 8.76283L17.4594 8.25L18 8.25L18 9ZM22 9L22.624 9.41603L22.4014 9.75L22 9.75L22 9ZM24 6L23.376 5.58398L23.5986 5.25L24 5.25L24 6ZM23.2789 24.206L21.2789 17.206L22.7211 16.794L24.7211 23.794L23.2789 24.206ZM21.584 17.624L18.584 15.624L19.416 14.376L22.416 16.376L21.584 17.624ZM18.376 15.416L16.376 12.416L17.624 11.584L19.624 14.584L18.376 15.416ZM16.2885 11.7628L17.2885 8.76283L18.7115 9.23717L17.7115 12.2372L16.2885 11.7628ZM18 8.25L22 8.25L22 9.75L18 9.75L18 8.25ZM21.376 8.58398L23.376 5.58398L24.624 6.41603L22.624 9.41603L21.376 8.58398ZM24 5.25L32 5.25L32 6.75L24 6.75L24 5.25Z" fill="white"/>
</g>
<g filter="url(#filter1_d_8_46)">
<path d="M23.794 24.7211C24.1922 24.8349 24.6073 24.6043 24.7211 24.206C24.8349 23.8078 24.6043 23.3927 24.206 23.2789L23.794 24.7211ZM17 22L16.376 22.416L16.5289 22.6454L16.794 22.7211L17 22ZM15 19L15.624 18.584L15.5408 18.4592L15.416 18.376L15 19ZM12 17L12.416 16.376L12.1108 16.1725L11.7628 16.2885L12 17ZM9 18L8.76283 17.2885L8.25 17.4594L8.25 18L9 18ZM9 22L9.41603 22.624L9.75 22.4014L9.75 22L9 22ZM6 24L5.58397 23.376L5.25 23.5986L5.25 24L6 24ZM24.206 23.2789L17.206 21.2789L16.794 22.7211L23.794 24.7211L24.206 23.2789ZM17.624 21.584L15.624 18.584L14.376 19.416L16.376 22.416L17.624 21.584ZM15.416 18.376L12.416 16.376L11.584 17.624L14.584 19.624L15.416 18.376ZM11.7628 16.2885L8.76283 17.2885L9.23717 18.7115L12.2372 17.7115L11.7628 16.2885ZM8.25 18L8.25 22L9.75 22L9.75 18L8.25 18ZM8.58397 21.376L5.58397 23.376L6.41603 24.624L9.41603 22.624L8.58397 21.376ZM5.25 24L5.25 32L6.75 32L6.75 24L5.25 24Z" fill="white"/>
</g>
<path d="M17 12L20 20L12 17" stroke="white" stroke-linecap="round"/>
<path d="M12.2353 8.47059L5.64703 5.64706L8.47056 12.2353L15.5294 15.5294L12.2353 8.47059Z" stroke="white" stroke-width="1.5" stroke-linecap="round"/>
<path d="M16.4706 7.52942L15.5294 9.41177L15.0588 7.52942" stroke="white" stroke-width="1.5" stroke-linecap="round"/>
<path d="M7.52942 14.1177L9.41177 15.0588L7.52942 15.5294" stroke="white" stroke-width="1.5" stroke-linecap="round"/>
<path d="M0.5 2C0.5 1.17157 1.17157 0.5 2 0.5C2.82843 0.5 3.5 1.17157 3.5 2L0.5 2ZM2 10L1.14723 11.234L0.500001 10.7867L0.500001 10L2 10ZM4.89412 12L5.74689 10.766L6.39412 11.2133L6.39412 12L4.89412 12ZM4.89412 20L6.39412 20L6.39412 20.7867L5.74689 21.234L4.89412 20ZM2 22L0.500003 22L0.500003 21.2133L1.14723 20.766L2 22ZM3.5 2L3.5 10L0.500001 10L0.5 2L3.5 2ZM2.85277 8.76599L5.74689 10.766L4.04135 13.234L1.14723 11.234L2.85277 8.76599ZM6.39412 12L6.39412 20L3.39412 20L3.39412 12L6.39412 12ZM5.74689 21.234L2.85277 23.234L1.14723 20.766L4.04135 18.766L5.74689 21.234ZM3.5 22L3.5 32L0.500004 32L0.500003 22L3.5 22Z" fill="white"/>
</g>
<defs>
<filter id="filter0_d_8_46" x="12.1725" y="5.25" width="23.8275" height="27.5002" filterUnits="userSpaceOnUse" color-interpolation-filters="sRGB">
<feFlood flood-opacity="0" result="BackgroundImageFix"/>
<feColorMatrix in="SourceAlpha" type="matrix" values="0 0 0 0 0 0 0 0 0 0 0 0 0 0 0 0 0 0 127 0" result="hardAlpha"/>
<feOffset dy="4"/>
<feGaussianBlur stdDeviation="2"/>
<feComposite in2="hardAlpha" operator="out"/>
<feColorMatrix type="matrix" values="0 0 0 0 0 0 0 0 0 0 0 0 0 0 0 0 0 0 0.25 0"/>
<feBlend mode="normal" in2="BackgroundImageFix" result="effect1_dropShadow_8_46"/>
<feBlend mode="normal" in="SourceGraphic" in2="effect1_dropShadow_8_46" result="shape"/>
</filter>
<filter id="filter1_d_8_46" x="1.25" y="16.1725" width="27.5002" height="23.8275" filterUnits="userSpaceOnUse" color-interpolation-filters="sRGB">
<feFlood flood-opacity="0" result="BackgroundImageFix"/>
<feColorMatrix in="SourceAlpha" type="matrix" values="0 0 0 0 0 0 0 0 0 0 0 0 0 0 0 0 0 0 127 0" result="hardAlpha"/>
<feOffset dy="4"/>
<feGaussianBlur stdDeviation="2"/>
<feComposite in2="hardAlpha" operator="out"/>
<feColorMatrix type="matrix" values="0 0 0 0 0 0 0 0 0 0 0 0 0 0 0 0 0 0 0.25 0"/>
<feBlend mode="normal" in2="BackgroundImageFix" result="effect1_dropShadow_8_46"/>
<feBlend mode="normal" in="SourceGraphic" in2="effect1_dropShadow_8_46" result="shape"/>
</filter>
<clipPath id="clip0_8_46">
<rect width="32" height="32" fill="white"/>
</clipPath>
</defs>
</svg>
